<svg xmlns="http://www.w3.org/2000/svg" viewBox="0 0 800 600">
  <!-- Background elements -->
  <defs>
    <linearGradient id="bgGradient" x1="0%" y1="0%" x2="100%" y2="100%">
      <stop offset="0%" stop-color="#00838f" stop-opacity="0.05"/>
      <stop offset="100%" stop-color="#26a69a" stop-opacity="0.05"/>
    </linearGradient>
    
    <filter id="shadow" x="-20%" y="-20%" width="140%" height="140%">
      <feGaussianBlur in="SourceAlpha" stdDeviation="5"/>
      <feOffset dx="2" dy="4"/>
      <feComposite in2="SourceAlpha" operator="arithmetic" k2="-1" k3="1"/>
      <feColorMatrix type="matrix" values="0 0 0 0 0 0 0 0 0 0 0 0 0 0 0 0 0 0 0.3 0"/>
    </filter>
  </defs>
  
  <!-- Background -->
  <rect width="800" height="600" fill="url(#bgGradient)"/>
  
  <!-- Desk -->
  <rect x="100" y="420" width="600" height="30" rx="5" fill="#00838f" filter="url(#shadow)"/>
  
  <!-- Monitor -->
  <g>
    <rect x="280" y="170" width="240" height="160" rx="5" fill="#455a64" filter="url(#shadow)"/>
    <rect x="290" y="180" width="220" height="140" fill="#263238"/>
    
    <!-- Code on screen -->
    <rect x="300" y="190" width="200" height="120" fill="#1e1e1e"/>
    
    <!-- Code lines animation -->
    <rect x="310" y="200" width="140" height="5" fill="#00838f" opacity="0.8">
      <animate attributeName="width" values="140;120;140" dur="3s" repeatCount="indefinite"/>
    </rect>
    <rect x="310" y="215" width="160" height="5" fill="#26a69a" opacity="0.7">
      <animate attributeName="width" values="160;130;160" dur="4s" repeatCount="indefinite"/>
    </rect>
    <rect x="310" y="230" width="120" height="5" fill="#00838f" opacity="0.6">
      <animate attributeName="width" values="120;150;120" dur="3.5s" repeatCount="indefinite"/>
    </rect>
    <rect x="310" y="245" width="150" height="5" fill="#26a69a" opacity="0.7">
      <animate attributeName="width" values="150;120;150" dur="4.5s" repeatCount="indefinite"/>
    </rect>
    <rect x="310" y="260" width="130" height="5" fill="#00838f" opacity="0.8">
      <animate attributeName="width" values="130;160;130" dur="4s" repeatCount="indefinite"/>
    </rect>
    <rect x="310" y="275" width="140" height="5" fill="#26a69a" opacity="0.6">
      <animate attributeName="width" values="140;110;140" dur="3s" repeatCount="indefinite"/>
    </rect>
    <rect x="310" y="290" width="120" height="5" fill="#00838f" opacity="0.7">
      <animate attributeName="width" values="120;150;120" dur="3.5s" repeatCount="indefinite"/>
    </rect>
    
    <!-- Monitor stand -->
    <rect x="370" y="330" width="60" height="20" rx="3" fill="#455a64"/>
    <rect x="380" y="350" width="40" height="70" rx="3" fill="#455a64"/>
  </g>
  
  <!-- Laptop -->
  <g>
    <rect x="480" y="360" width="180" height="10" rx="2" fill="#455a64" filter="url(#shadow)"/>
    <rect x="480" y="285" width="180" height="75" rx="5" fill="#546e7a" filter="url(#shadow)"/>
    <rect x="490" y="295" width="160" height="55" fill="#263238"/>
    
    <!-- Code on laptop screen -->
    <rect x="495" y="300" width="150" height="45" fill="#1e1e1e"/>
    
    <!-- Code lines animation on laptop -->
    <rect x="500" y="305" width="100" height="3" fill="#00838f" opacity="0.7">
      <animate attributeName="width" values="100;80;100" dur="3s" repeatCount="indefinite"/>
    </rect>
    <rect x="500" y="313" width="120" height="3" fill="#26a69a" opacity="0.6">
      <animate attributeName="width" values="120;90;120" dur="4s" repeatCount="indefinite"/>
    </rect>
    <rect x="500" y="321" width="90" height="3" fill="#00838f" opacity="0.8">
      <animate attributeName="width" values="90;110;90" dur="3.5s" repeatCount="indefinite"/>
    </rect>
    <rect x="500" y="329" width="110" height="3" fill="#26a69a" opacity="0.7">
      <animate attributeName="width" values="110;80;110" dur="4.5s" repeatCount="indefinite"/>
    </rect>
    <rect x="500" y="337" width="95" height="3" fill="#00838f" opacity="0.6">
      <animate attributeName="width" values="95;115;95" dur="4s" repeatCount="indefinite"/>
    </rect>
  </g>
  
  <!-- Coffee mug -->
  <g>
    <rect x="200" y="320" width="40" height="60" rx="5" fill="#00695c" filter="url(#shadow)"/>
    <rect x="240" y="335" width="10" height="25" rx="5" fill="#00695c"/>
    <ellipse cx="220" cy="320" rx="20" ry="5" fill="#00695c"/>
    
    <!-- Steam animation -->
    <path d="M215,300 Q220,290 225,300" stroke="#ffffff" stroke-width="2" fill="none" opacity="0.7">
      <animate attributeName="d" values="M215,300 Q220,290 225,300;M215,300 Q220,285 225,300;M215,300 Q220,290 225,300" dur="2s" repeatCount="indefinite"/>
      <animate attributeName="opacity" values="0.7;0.3;0.7" dur="2s" repeatCount="indefinite"/>
    </path>
    <path d="M220,295 Q225,285 230,295" stroke="#ffffff" stroke-width="2" fill="none" opacity="0.5">
      <animate attributeName="d" values="M220,295 Q225,285 230,295;M220,295 Q225,280 230,295;M220,295 Q225,285 230,295" dur="3s" repeatCount="indefinite"/>
      <animate attributeName="opacity" values="0.5;0.2;0.5" dur="3s" repeatCount="indefinite"/>
    </path>
  </g>
  
  <!-- Phone -->
  <g>
    <rect x="650" y="350" width="30" height="50" rx="3" fill="#37474f" filter="url(#shadow)"/>
    <rect x="655" y="355" width="20" height="35" fill="#26a69a" opacity="0.8"/>
    <circle cx="665" cy="395" r="2" fill="#cfd8dc"/>
  </g>
  
  <!-- Notepad -->
  <g>
    <rect x="120" y="350" width="60" height="40" rx="2" fill="#cfd8dc" filter="url(#shadow)"/>
    <line x1="125" y1="360" x2="175" y2="360" stroke="#90a4ae" stroke-width="1"/>
    <line x1="125" y1="370" x2="175" y2="370" stroke="#90a4ae" stroke-width="1"/>
    <line x1="125" y1="380" x2="165" y2="380" stroke="#90a4ae" stroke-width="1"/>
    <circle cx="130" cy="355" r="2" fill="#00838f"/>
    <circle cx="140" cy="355" r="2" fill="#00695c"/>
  </g>
  
  <!-- Decorative elements -->
  <g>
    <!-- Floating shapes -->
    <rect x="100" y="100" width="20" height="20" rx="5" fill="#00838f" opacity="0.3">
      <animateTransform attributeName="transform" type="rotate" from="0 110 110" to="360 110 110" dur="15s" repeatCount="indefinite"/>
    </rect>
    
    <circle cx="700" cy="150" r="15" fill="#26a69a" opacity="0.3">
      <animate attributeName="cy" values="150;160;150" dur="5s" repeatCount="indefinite"/>
    </circle>
    
    <rect x="150" y="200" width="15" height="15" rx="3" fill="#00695c" opacity="0.3">
      <animate attributeName="y" values="200;210;200" dur="7s" repeatCount="indefinite"/>
    </rect>
    
    <circle cx="650" cy="250" r="10" fill="#00838f" opacity="0.3">
      <animate attributeName="cx" values="650;660;650" dur="6s" repeatCount="indefinite"/>
    </circle>
    
    <!-- Code brackets -->
    <text x="170" y="170" font-family="monospace" font-size="50" fill="#00838f" opacity="0.15" transform="rotate(-10 170 170)">{</text>
    <text x="630" y="300" font-family="monospace" font-size="50" fill="#00838f" opacity="0.15" transform="rotate(10 630 300)">}</text>
    <text x="80" y="300" font-family="monospace" font-size="40" fill="#26a69a" opacity="0.15" transform="rotate(-5 80 300)">&lt;</text>
    <text x="720" y="180" font-family="monospace" font-size="40" fill="#26a69a" opacity="0.15" transform="rotate(5 720 180)">/&gt;</text>
  </g>
  
  <!-- Bottom flourish -->
  <path d="M0,450 C200,500 600,480 800,450" fill="none" stroke="#00838f" stroke-width="2" opacity="0.1"/>
  <path d="M0,460 C200,510 600,490 800,460" fill="none" stroke="#26a69a" stroke-width="2" opacity="0.1"/>
  
  <!-- Copyright text -->
  <text x="400" y="580" font-family="Arial" font-size="10" text-anchor="middle" fill="#616161">© 2025 Haseeb Ur Rahman Mohammad</text>
</svg>
